<svg height="256" viewBox="0 0 512 512" width="256" xmlns="http://www.w3.org/2000/svg"><g fill="#4b4b4b"><path d="m229.46 343.481c-22.038 0-39.909 17.87-39.909 39.909 0 22.055 17.87 39.926 39.909 39.926 22.056 0 39.926-17.87 39.926-39.926 0-22.039-17.87-39.909-39.926-39.909z"/><path d="m464.078 361.412-40.179-10.162c-16.629-4.195-33.53 5.89-37.733 22.536l-.656 2.605-20.876-5.278c2.044-7.943 3.792-14.977 4.998-20.203 3.181-13.772 5.566-33.416 16.717-40.852 79.834-46.41 40.843-148.519 20.422-198.65-20.422-50.141-59.412-66.849-77.981-66.849-14.55 0-46.76 0-76.103 0v-34.745c0-5.418-4.395-9.814-9.822-9.814h-26.81c-5.417 0-9.813 4.395-9.813 9.814v34.744c-29.352 0-61.562 0-76.102 0-18.57 0-57.569 16.708-77.992 66.849-20.421 50.132-59.403 152.24 20.43 198.65 11.134 7.436 13.519 27.08 16.717 40.852 5.566 24.144 22.274 85.409 29.694 107.684 4.841 14.523 32.489 48.28 110.471 48.28 77.972 0 105.638-33.757 110.48-48.28.961-2.893 2.088-6.476 3.32-10.512l22.685 5.732-2.36 9.341c-4.203 16.629 5.873 33.538 22.511 37.732l40.179 10.163c16.62 4.194 33.53-5.872 37.733-22.519l22.58-89.377c4.202-16.638-5.872-33.529-22.51-37.741zm-165.891-252.068c39.813-11.779 77.615 16.9 90.6 67.041 12.461 48.009.14 93.431-39.681 105.202-39.813 11.771-76.724-10.861-86.563-69.924-9.288-55.709-4.185-90.549 35.644-102.319zm-188.373 172.242c-39.83-11.77-52.134-57.193-39.69-105.202 13.004-50.141 50.797-78.82 90.618-67.041 39.812 11.77 44.915 46.611 35.644 102.318-9.849 59.064-46.76 81.697-86.572 69.925zm119.646 180.72c-43.578 0-78.899-35.338-78.899-78.916s35.321-78.9 78.899-78.9 78.908 35.321 78.908 78.9c0 43.578-35.33 78.916-78.908 78.916z"/></g></svg>